<svg xmlns="http://www.w3.org/2000/svg" viewBox="0 0 12.91 17.77"><defs><style>.cls-1{fill:#71577f;}</style></defs><g id="Capa_2" data-name="Capa 2"><g id="Capa_1-2" data-name="Capa 1"><path class="cls-1" d="M11.67,5.39l-.21-.11h0l.11-.06c0,.05.09.17.18.12s0-.19-.09-.21h0l.2,0h-.23a.39.39,0,0,1,.23-.28h0l-.14,0s0,0-.06,0l0-.05s.11-.18,0-.22-.19.14-.12.22c-.09.05-.07.23,0,.29a.23.23,0,0,1-.2,0l.09,0v0c-.12.09-.15,0-.25-.06h.18l-.28,0h0l0,0,0,0c.05-.09.09-.18.13-.27l-.09.1c0-.12-.09-.18-.2-.12l-.06-.06A7.38,7.38,0,0,1,7.32,7.24c-.17,0-.39.06-.44-.09a1.32,1.32,0,0,0,.78-.33c-.22.12-1.34.37-1.4.07a1.22,1.22,0,0,0,.27,0,1.26,1.26,0,0,0,.28,0,1,1,0,0,0,.25-.06.76.76,0,0,0,.23-.13l0,0,0,0c-.24.08-1.44.27-1.48,0a1.8,1.8,0,0,0,1-.05A1,1,0,0,0,7,6.42l0,0,0,0a2.48,2.48,0,0,1-.87.11c-.07,0-.84-.13-.75-.27h0c0-.06.41,0,.49,0a4,4,0,0,0,1,0c.29,0,.63-.27.27-.48-.16-.09-.53-.15-.63-.27s0,0,0,0,0,0,.08,0a.86.86,0,0,1,.54.09h0a3.2,3.2,0,0,1,.38.14,2,2,0,0,0,.67.2c.95-.23,2.19-2.2,2.72-3.56h0a.15.15,0,0,0-.09,0c-.09,0-.23,0-.15.12h-.15l-.07-.1-.11.15a.16.16,0,0,0,0,.15h-.05a.08.08,0,0,0-.08,0l0-.08h.1c-.06,0-.12-.06-.17-.1l0,0h0l0,0a.15.15,0,0,0,0-.13L10,2.11l-.11.14h0l-.1,0v0c.08,0,.17,0,.17-.11l.07,0A.12.12,0,0,0,10.21,2l0-.18h-.19a.14.14,0,0,0-.13.1h0l-.11-.15-.1.13a.6.6,0,0,0-.35-.15l.28.14h0v0h0L9.41,2h0l0,0a.15.15,0,0,0-.08.11,1,1,0,0,0-.11.2l0-.11H9.17l0,0s0-.13,0-.13L9.12,2l.05-.18H9a.16.16,0,0,0,0-.15L8.9,1.56h0l0-.06,0-.18H8.91s0,0,0,0l-.09,0a.07.07,0,0,0,0-.05.1.1,0,0,0-.05-.06L8.68,1l-.1.14s0,0,0,.06,0,0,0,0L8.42,1l-.11.15h0a.19.19,0,0,1-.09,0l.1,0v0A4,4,0,0,0,7.84.9a.16.16,0,0,0,0-.08L7.69.67,7.58.82a.11.11,0,0,0,0,.06.24.24,0,0,0-.09.05V.8A.19.19,0,0,0,7.36.75h0L7.24.59h0C7.12.54,7.05.73,7,.79l-.13,0L6.79.65,6.68.8a.12.12,0,0,0,0,.17s0,0,0,0h0l0,.12L6.6,1h0L6.55,1a.11.11,0,0,0,0-.08L6.49.73,6.36.81c0-.06,0-.19-.06-.23h0l-.05,0a.09.09,0,0,0,0-.05l0,0h0a.11.11,0,0,0-.09,0L6.12.32,6,.45s-.08,0-.13,0v0L6.12.27v0a.19.19,0,0,0-.27.1L5.78.27h0a.07.07,0,0,0,0-.05.07.07,0,0,0,.07,0,.07.07,0,0,0,0-.11L5.81,0l0,.09,0,0a.07.07,0,0,0,0,.1s0,0,0,0l-.1.12a.08.08,0,0,1,0,0h0l0,0h0a.13.13,0,0,0-.09,0,.16.16,0,0,0-.06.08.53.53,0,0,0-.17,0l0-.07,0,.06h0l0,0a.5.5,0,0,0-.22.1l-.16,0,.14.07v0H5a.13.13,0,0,0,.06.1l0,0H5L5,1a.18.18,0,0,0,0,.07h0l0,0L5,1,4.86.84,4.74,1a.14.14,0,0,0,0,.06L4.62.93l0,0A.16.16,0,0,0,4.46.92H4.27l.05.14,0,.06,0,0h0a.16.16,0,0,0,0-.16L4.17.92h0l0-.07,0,0H4L3.88.72l0,.06L3.68.68,3.63.83h0L3.43.8l0,.19H3.39l.06.19,0,.06a.28.28,0,0,1,0,.1s0,0,0,0l-.06,0L3.31,1.2l-.11.15,0,0-.11-.15-.12.15h0a.15.15,0,0,0-.15-.1h-.2l.07.18a.15.15,0,0,0,.16.1l.08,0a.09.09,0,0,0,0,.08H2.77l0,.19a.16.16,0,0,0,.06.08l-.18,0,0,.19,0,.07h0l0-.07h0L2.6,2l-.09.11s-.06,0-.07.06l0,0V2L2.21,2a.14.14,0,0,0-.09.08L2,2l-.12.15h0l-.06-.09-.05.06a.14.14,0,0,0-.11,0H1.48l.07.18h0l0,0,0,0,0,0a.11.11,0,0,0,0-.07l-.13-.16-.11.15,0,.06,0,0L1,2.4a.1.1,0,0,0,0,.1H1l0,0L1,2.6,1,2.62H1l.13,0h0l.14.09a.15.15,0,0,0,.09,0v0a.12.12,0,0,0-.14,0l-.11.11.06,0,0,.12a.14.14,0,0,0,.14.11.12.12,0,0,0,.1-.09c.07.1.09.24.25.28l.19-.07s.07-.09.12-.08a.49.49,0,0,0,0,.12l-.15.05v0a.29.29,0,0,0,.28-.09l.21.1v0h0l-.15-.07V3.5H2l0,.06H2L2,3.7H2l-.12,0L2,3.74l-.05,0,0,0a.13.13,0,0,0-.18,0l-.11.11.14.09a.12.12,0,0,0,.14,0h0L1.73,4a.31.31,0,0,0-.11-.09l-.24-.09a1.43,1.43,0,0,0,0,.44.22.22,0,0,0,.11,0,.22.22,0,0,0,.21-.11l.05.15s0,.06.08.08l-.09,0h0l.16.1-.13,0H1.51C1.88,5.61,3,7.19,4,7.46a3,3,0,0,0,.7-.2,2.73,2.73,0,0,1,.39-.14h0A1,1,0,0,1,5.66,7a.15.15,0,0,1,.08,0s0,0,0,.06-.48.17-.64.26c-.37.2,0,.43.26.49a4.54,4.54,0,0,0,1,.05c.08,0,.45-.06.49,0h0c.09.14-.68.26-.75.27a2.44,2.44,0,0,1-.87-.13h0l0,0a.79.79,0,0,0,.24.15,1.84,1.84,0,0,0,1,0c0,.31-1.25.12-1.5,0l0,0,0,0a.71.71,0,0,0,.22.13,1.21,1.21,0,0,0,.25.08,2.85,2.85,0,0,0,.29,0H6c-.06.31-1.19,0-1.42-.07a1.33,1.33,0,0,0,.79.33c-.06.15-.28.14-.45.09A7,7,0,0,1,1.64,7L1.42,7c.06-.08,0-.36-.13-.28a.32.32,0,0,0,.1.27h0V7L1.15,7l.13.13-.09,0a.26.26,0,0,1,.19,0h.1l0,.14h0l.1-.13.08,0a.1.1,0,0,0,0,.06l-.11.21.2.05-.06,0h0a.17.17,0,0,0,.12,0h0a.18.18,0,0,0-.05.07l-.11.21.14,0,0,.08,0,0-.12-.08L1.71,8H1.58a.39.39,0,0,1,.14,0l-.05.05h0l0,.06h0v0h0l-.05.12.07,0c0,.05,0,.12,0,.16s.26.09.32,0l.08,0,.17.16.07-.13.11,0c0,.12.05.11.09.19l-.09,0,.1,0s.08.1.14.1-.05-.09-.07-.13l.06,0a.11.11,0,0,0,.11.06c0,.09.06.19.16.15s0-.18-.06-.21h.06a.15.15,0,0,0,.06.15l.18.17.08-.15c.09,0,.18,0,.07-.11l0-.07.06.06c-.09.09,0,.21.11.19v.16l.24,0h0c0,.26.54.32.37,0l0-.12h0a.39.39,0,0,0,0,.25.41.41,0,0,1,0,.09c-.06.11,0,.2,0,.21H4A.07.07,0,0,0,4,9.62a.08.08,0,0,0,.06.1.07.07,0,0,0,.09-.07l0-.09.16.11s.28.34.35.39a.65.65,0,0,1,.16.37,1.75,1.75,0,0,0,0,.34.83.83,0,0,0,.23.08.9.9,0,0,1,.32.17c.09.06.21.24.26.27l.19.2a1.49,1.49,0,0,1-1.18,1.29,4.83,4.83,0,0,0-.68.1A7.7,7.7,0,0,1,3,13l0,.1L10.54,13v-.1l-1.19,0a1.83,1.83,0,0,0-.67-.16c-.24,0-.44-.41-1-.5a5.35,5.35,0,0,0-.3-.73l.12-.19c.11-.14.44-.71.37-.9a3.11,3.11,0,0,1-.12-.61,2.92,2.92,0,0,1,.12-.64h0s0,0,0-.06h.09a.13.13,0,0,0-.05.14c.14.1.18-.11.23-.17l.11.05v.06l.06-.05c.11.05.23,0,.18-.14h0L8.64,9h0l-.08-.1h0l0,0h0c.12.18.19-.12.22-.18a.05.05,0,0,0,.08,0c0,.1.12.24.22.11l.11.11a.07.07,0,0,0-.06,0,.09.09,0,0,0,0,.12A.08.08,0,0,0,9.3,9l0,0,0,0,0,0,0,0-.1,0h0l-.12-.12,0,0c.12,0,.15,0,.12-.14l0,0,0,0h0l-.13.23c.08.06.16,0,.2-.08a.07.07,0,0,0,.09,0l.08-.05-.08-.07h0a.4.4,0,0,0,0-.11l.12.05-.1-.08,0-.14h0l.06,0,0,0,0,0h0c0,.05.05.16.16.13V8.26h.09l0,0,.11,0h0l-.12.1.23-.16,0,0a.5.5,0,0,1-.18.22l.14-.09h0v.06L10,8.47v0c.15.08.26-.1.24-.24s.07,0,.09.05h0L10.26,8l.13.05L10.25,8c.19-.07.25.1.4.09h0c0-.07-.14-.09-.23-.12l.09,0s-.07,0-.11,0l0,0v0l0,0c.05,0,.09,0,.08,0l.09,0,.05,0-.13-.11,0-.09h0l-.05-.09.27.07h0l-.19-.09h.11l0,0,.18-.1c-.23,0-.09.11-.39,0a1.36,1.36,0,0,1,0-.17h0l.1.13s0-.09,0-.11h.13V7l-.05,0c.05,0,.11-.09.17,0h0l0,0,.11-.09h0a.31.31,0,0,1-.2,0l0,0h0c.07-.06.27-.07.26-.21l.33,0h0l-.3,0-.11-.16v0h0l.1,0h0l0,0,0,0,.15,0h-.06s.23-.2.19-.25l-.19.16,0,0,0,0h-.06c.1-.07.13-.19.27-.23h-.15c.07-.08.12-.35-.09-.28l.12-.27h0a.63.63,0,0,1-.24.18.45.45,0,0,0,0-.31c.12,0,0-.11,0-.15s.09.06.14.12a.42.42,0,0,0,.05.16v0l.07.14c.09.07.15-.06.15-.14l.07,0,0,.11c.11.09.27-.13.18-.22l.32,0h0a.52.52,0,0,0-.31,0Zm-.76-.84.12,0h-.1l0,0ZM4.79,9.46h0a2.24,2.24,0,0,0,0,.45,3.23,3.23,0,0,1-.36-.37.38.38,0,0,1-.06-.11v0a.27.27,0,0,0,.16,0s0-.12,0-.17l0,0,0,0a1,1,0,0,0,.11.17c.11,0,.18-.06.13-.14l0-.06,0,0v.09h0l0,.13Zm.27-.16h0l.05,0h0A.24.24,0,0,0,5,9.35l0,0Zm.63,1.53h0c-.06,0-.53-.33-.59-.38S5,10.23,5,9.92a1,1,0,0,1,0-.37v0l0,0,.15-.14v.19h.05s0,.08.06.1a.49.49,0,0,0,0-.11l.11,0,.06,0,.2.27a4.75,4.75,0,0,1,.18,1l-.12-.05Zm1.67-.22h0a.5.5,0,0,1-.14.1c0-.24,0-.47,0-.74,0-.09,0-.1,0-.21l0,0,0,0h0V9.6l.06,0h0s.15.1.19.21v0h0a.11.11,0,0,0-.13.1l0,.14h.19s0,0,0,.06-.15.37-.23.45Zm.28-1.26h0l0,.37s0,0-.11-.11a.26.26,0,0,1-.08-.13l0-.05a.18.18,0,0,0,.07.05l-.07-.06a2.47,2.47,0,0,0,.1-.29h0l0,.08h0V9.05l.08,0v.05l0,0-.06.2Zm1.51-6.9Z"/><path class="cls-1" d="M0,17.65,1.35,14h.71l1.26,3.67H2.6l-.34-1H.88l-.37,1Zm1.06-1.47h1l-.51-1.47ZM3.8,17.67l0-3.89h.66l0,3.88Zm1.49,0,0-2.69H6v2.69Zm0-3.14v-.61l.66,0v.6Zm2.06,3.15L6.45,15h.69l.67,1.94L8.48,15H9L8,17.69Zm2.06,0V15h.64V17.7Zm0-3.1V14h.64v.6ZM12,17.42a1,1,0,0,1-.24.21.58.58,0,0,1-.21.1.85.85,0,0,1-.23,0,.64.64,0,0,1-.51-.22.87.87,0,0,1,.1-1.19,1.3,1.3,0,0,1,.92-.26H12v-.24a.39.39,0,0,0-.12-.33.5.5,0,0,0-.31-.09,1.36,1.36,0,0,0-.74.23v-.49a2,2,0,0,1,.86-.17,1.3,1.3,0,0,1,.46.08.76.76,0,0,1,.33.25.86.86,0,0,1,.12.5V17c0,.14,0,.23.06.26a.16.16,0,0,0,.12,0h.08v.4a1,1,0,0,1-.35.07.62.62,0,0,1-.31-.07.44.44,0,0,1-.19-.28ZM12,17V16.5h-.15a.72.72,0,0,0-.46.12.41.41,0,0,0-.16.31.36.36,0,0,0,.1.25.26.26,0,0,0,.21.1.49.49,0,0,0,.23-.06A.9.9,0,0,0,12,17Z"/></g></g></svg>